<?xml version="1.0" encoding="UTF-8"?><svg id="Layer_2" xmlns="http://www.w3.org/2000/svg" viewBox="0 0 376.61 91.54"><g id="dustyLettering"><g><path d="M0,2.86H29.89c25.32,0,44.91,18.59,44.91,42.77,0,22.89-17.45,43.05-44.91,43.05H0V2.86ZM29.89,84.68c24.17,0,39.62-18.31,39.62-39.05,0-21.88-17.31-38.76-39.62-38.76H5.29V84.68H29.89ZM15.73,8.87h19.88l4,.72H15.73v-.72Zm0,2.86h30.18l1.57,.71H15.73v-.71Zm0,2.86H51.06l1,.72H15.73v-.72Zm0,3.29h13.73c18.02,0,29.04,12.16,29.04,27.75,0,16.88-12.59,27.89-29.04,27.89H15.73V17.88Zm0,58.36H52.35l-1,.72H15.73v-.72Zm0,2.86H47.77l-1.57,.71H15.73v-.71Zm0,2.86h24.17l-2.86,.57H15.73v-.57Zm13.73-12.44c13.45,0,23.74-9.44,23.74-23.89,0-13.3-9.01-23.74-23.74-23.74h-8.44v47.63h8.44Zm10.44,4h15.88l-.57,.57h-17.16l1.86-.57Zm15.02-56.21l-.14-.14,1.14,.86h-15.3l-2.29-.71h16.59Zm-8.58,53.35h12.59l-.72,.71h-13.16l1.29-.71Zm11.59-50.49l.72,.72h-11.73l-1.14-.72h12.16Zm-7.58,47.63h10.73l-.57,.71h-11.3l1.14-.71Zm10.16-44.77l.43,.57h-10.3l-.71-.57h10.58Zm-7.58,42.05h9.87l-.57,.71h-10.01l.71-.71Zm-.29-39.33h9.58l.57,.71h-9.44l-.71-.71Zm2.43,36.47h9.3l-.43,.72h-9.44l.57-.72Zm-.14-33.61h9.01l.29,.71h-8.87l-.43-.71Zm1.72,30.9h8.87l-.29,.57h-8.87l.29-.57Zm-.14-28.18h8.72l.29,.71h-8.58l-.43-.71Zm1.29,2.86h8.44l.29,.72h-8.3l-.43-.72Zm.14,22.46h8.58l-.29,.71h-8.44l.14-.71Zm1-2.86h8.3l-.29,.71h-8.3l.29-.71Zm-.14-16.74h8.3l.14,.57h-8.3l-.14-.57Zm.57,2.72h8.15l.29,.71h-8.3l-.14-.71Zm.14,11.3h8.3l-.29,.71h-8.15l.14-.71Zm.29-2.86h8.15v.72h-8.3l.14-.72Zm0-5.58h8.15v.71h-8.15v-.71Zm.14,2.72h8.15v.71h-8.15v-.71Z" style="fill:#fff;"/><path d="M87.25,2.86h20.88V56.64c0,11.44,5.44,15.45,12.73,15.45,8.01,0,13.02-4,13.02-15.45V2.86h21.03V59.79c0,20.31-15.16,31.75-34.04,31.75s-33.61-12.01-33.61-31.75V2.86Zm33.61,84.68c15.88,0,28.75-10.01,28.75-27.75V6.87h-10.44V56.64c0,14.45-7.01,19.45-18.31,19.45-10.3,0-18.02-5.01-18.02-19.45V6.87h-10.3V59.79c0,17.31,11.87,27.75,28.32,27.75Zm-26.89-48.92h7.44v.71h-7.44v-.71Zm0,2.86h7.44v.72h-7.44v-.72Zm0,2.86h7.44v.71h-7.44v-.71Zm0,2.86h7.44v.71h-7.44v-.71Zm0,2.86h7.44v.72h-7.44v-.72Zm0,2.86h7.44v.71h-7.44v-.71Zm0,2.86h7.44v.72h-7.44v-.72Zm0,2.86h7.44l.14,.71h-7.58v-.71Zm0,2.86h7.58l.29,.71h-7.87v-.71Zm.29,2.86h7.87l.29,.72h-8.01l-.14-.72Zm.57,2.86h8.3l.29,.71h-8.44l-.14-.71Zm.86,2.86h8.73l.71,.71h-9.3l-.14-.71Zm1.29,2.86h9.87l.86,.72h-10.3l-.43-.72Zm14.16,2.86l1.72,.71h-13.59l-.57-.71h12.44Zm29.61,2.86l-.86,.72h-37.9l-.72-.72h39.48Zm-3.86,2.86l-1.14,.71h-29.75l-1-.71h31.9Zm-5.72,2.86l-2.72,.71h-15.3l-2.57-.71h20.6Zm0-8.58h12.02l-.57,.71h-13.3l1.86-.71Zm4.15-2.86h9.58l-.29,.72h-10.01l.71-.72Zm2.29-2.86h8.73l-.29,.71h-9.01l.57-.71Zm1.29-2.86h8.44l-.29,.71h-8.44l.29-.71Zm1-2.86h8.01l-.29,.72h-8.01l.29-.72Zm.43-2.86h7.87l-.14,.71h-7.87l.14-.71Zm.14-2.86h7.72v.71h-7.72v-.71Zm.14-20.03h7.58v.71h-7.58v-.71Zm0,2.86h7.58v.72h-7.58v-.72Zm0,2.86h7.58v.71h-7.58v-.71Zm0,2.86h7.58v.71h-7.58v-.71Zm0,2.86h7.58v.72h-7.58v-.72Zm0,2.86h7.58v.71h-7.58v-.71Zm0,2.86h7.58v.72h-7.58v-.72Z" style="fill:#fff;"/><path d="M186.8,63.51c0,5.01,4,9.01,8.87,9.01,5.29,0,8.58-3,8.58-7.44,0-6.44-8.44-8.3-15.45-10.73-14.45-5.15-22.46-11.87-22.46-26.6S179.37,0,195.53,0c19.02,0,28.04,12.16,29.18,28.04h-19.74c0-4.86-3-8.87-8.87-8.87-4.58,0-9.01,2.72-9.01,8.3,0,6.44,7.87,7.58,15.16,9.73,15.3,4.58,22.46,13.16,22.46,26.6,0,15.16-12.87,27.75-29.04,27.75-18.74,0-29.32-12.59-29.32-28.04h20.45Zm8.87,24.03c13.3,0,24.17-10.73,24.17-23.74,0-14.45-8.58-19.74-21.74-23.46-8.44-2.43-15.73-4.43-15.73-12.87,0-7.44,5.58-12.3,13.3-12.3,8.87,0,11.87,5.29,13.16,8.87h10.73c-.86-8.44-7.15-20.02-23.89-20.02-13.3,0-24.46,10.73-24.46,23.74,0,10.58,4,17.31,19.74,22.89,8.15,3,18.02,5.15,18.02,14.45,0,7.58-6.58,11.44-13.3,11.44-7.29-.14-11.87-4.29-13.16-9.01h-11.16c.29,10.73,10.73,20.02,24.32,20.02Zm-23.03-61.36h8.3v.71h-8.3v-.71Zm0,2.86h8.3l.14,.71h-8.44v-.71Zm.57-5.87h8.3l-.29,.86h-8.3l.29-.86Zm-.29,8.87h8.58l.29,.72h-8.73l-.14-.72Zm.71,2.86h9.58l-.14-.14,.86,.86h-10.16l-.14-.71Zm.29-14.59h8.73l-.43,.71h-8.44l.14-.71Zm1.43-3h9.87l-1,.86h-9.3l.43-.86Zm-.29,20.6h11.59l1.14,.71h-12.3l-.43-.71Zm2.15-23.46h12.59l-1.57,.71h-11.59l.57-.71Zm.14,26.32h16.45l2.72,.71h-18.45l-.72-.71Zm2.58-29.18h15.73v.72h-16.59l.86-.72Zm.71,32.04h22.46l2.15,.86h-23.03l-1.57-.86Zm3.58-35.04h11.44v.72h-12.59l1.14-.72Zm25.03,38.05l.86,.72h-22.74l-1.14-.72h23.03ZM192.67,5.72h3v.71h-6.44l3.43-.71Zm20.45,43.77l.72,.86h-19.6l-2.15-.86h21.03Zm-17.45,29.32h16.31l-.72,.71h-15.59v-.71Zm0,2.86h12.87l-1,.71h-11.87v-.71Zm0,3h7.29l-2.72,.71h-4.58v-.71Zm19.88-32.18l.29,.72h-13.87l-1.57-.72h15.16Zm-11.16,23.32h10.16l-.43,.57-.14,.29h-11.3l1.72-.86Zm12.44-20.45l.29,.71h-10.44l-.86-.71h11.01Zm-9.15,17.59h8.44l-.43,.72h-8.73l.72-.72Zm.71-14.59h9.44l.29,.71h-9.3l-.43-.71Zm1.14,11.59h7.87l-.29,.86h-8.01l.43-.86Zm.29-8.73h8.44v.71h-8.3l-.14-.71Zm.43,5.86h7.87l-.14,.72h-7.87l.14-.72Zm.14-2.86h8.01l-.14,.71h-7.87v-.71Z" style="fill:#fff;"/><path d="M250.89,21.46h-19.31V2.86h59.79V21.46h-19.45V88.68h-21.03V21.46Zm15.73,63.22V17.45h19.45V6.87h-49.2v10.58h19.31V84.68h10.44ZM238.3,9.01h46.34v.71h-46.34v-.71Zm0,2.86h46.34v.72h-46.34v-.72Zm0,2.86h46.34v.71h-46.34v-.71Z" style="fill:#fff;"/><path d="M325.26,47.2L294.8,2.86h23.74l17.16,25.75,17.16-25.75h23.74l-30.47,44.34v41.48h-20.88V47.2Zm15.59,37.48V46.2l27.03-39.33h-11.73l-19.45,28.75h-2l-19.45-28.75h-11.73l27.03,39.33v38.48h10.3ZM306.38,8.44h8.15l.57,.71h-8.3l-.43-.71Zm1.86,2.86h8.15l.57,.72h-8.3l-.43-.72Zm2,2.86h8.15l.57,.71h-8.3l-.43-.71Zm2,2.86h8.01l.57,.71h-8.15l-.43-.71Zm1.86,2.72h8.01l.57,.71h-8.15l-.43-.71Zm2,2.86h7.87l.57,.72h-8.01l-.43-.72Zm2,2.86h7.87l.57,.71h-8.01l-.43-.71Zm2,2.86h7.72l.57,.72h-7.87l-.43-.72Zm1.86,2.86h7.87l.57,.71h-7.87l-.57-.71Zm2,2.86h7.72l.57,.71h-7.87l-.43-.71Zm1.86,2.86h7.87l.57,.72h-7.87l-.57-.72Zm2.15,2.86h7.58l.57,.71h-7.72l-.43-.71Zm1.86,2.86h7.72l.57,.71h-7.87l-.43-.71Zm2,2.86h7.29l.29,.72h-7.44l-.14-.72Zm.14,2.86h7.44v.57h-7.44v-.57Zm0,2.72h7.44v.71h-7.44v-.71Zm0,2.86h7.44v.71h-7.44v-.71Zm0,2.86h7.44v.72h-7.44v-.72Zm0,2.86h7.44v.71h-7.44v-.71Zm0,2.86h7.44v.72h-7.44v-.72Zm0,2.86h7.44v.71h-7.44v-.71Zm0,2.86h7.44v.71h-7.44v-.71Zm0,2.86h7.44v.72h-7.44v-.72Zm0,2.86h7.44v.71h-7.44v-.71Zm0,2.86h7.44v.71h-7.44v-.71Zm0,2.72h7.44v.71h-7.44v-.71Zm0,2.86h7.44v.72h-7.44v-.72Z" style="fill:#fff;"/></g></g></svg>