<?xml version="1.0" encoding="UTF-8"?><svg id="welcomePageIdeas" xmlns="http://www.w3.org/2000/svg" xmlns:xlink="http://www.w3.org/1999/xlink" viewBox="0 0 792 3060"><defs><clipPath id="clippath"><rect y="0" width="792" height="3060"/></clipPath><clipPath id="clippath-1"><rect y="-755.92" width="792" height="612" style="fill:#231f20;"/></clipPath></defs><g><rect y="0" width="792" height="3060"/><g style="clip-path:url(#clippath);"><g><line x1="1078.96" y1="758.14" x2="127.92" y2="758.14" style="fill:none; stroke:#050505; stroke-miterlimit:10; stroke-width:39.36px;"/><line x1="1051.87" y1="698.05" x2="134.46" y2="698.05" style="fill:none; stroke:#0c0d0d; stroke-miterlimit:10; stroke-width:38.89px;"/><line x1="1008.87" y1="640.62" x2="125.09" y2="640.62" style="fill:none; stroke:#121313; stroke-miterlimit:10; stroke-width:38.42px;"/><line x1="954.76" y1="585.27" x2="104.61" y2="585.27" style="fill:none; stroke:#171818; stroke-miterlimit:10; stroke-width:37.95px;"/><line x1="894.36" y1="531.45" x2="77.84" y2="531.45" style="fill:none; stroke:#1b1d1d; stroke-miterlimit:10; stroke-width:37.48px;"/><line x1="832.49" y1="478.59" x2="49.6" y2="478.59" style="fill:none; stroke:#1f2121; stroke-miterlimit:10; stroke-width:37.01px;"/><line x1="773.95" y1="426.13" x2="24.7" y2="426.13" style="fill:none; stroke:#232424; stroke-miterlimit:10; stroke-width:36.54px;"/><line x1="723.57" y1="373.51" x2="7.94" y2="373.51" style="fill:none; stroke:#262828; stroke-miterlimit:10; stroke-width:36.06px;"/><line x1="686.15" y1="320.16" x2="4.16" y2="320.16" style="fill:none; stroke:#292b2b; stroke-miterlimit:10; stroke-width:35.59px;"/><line x1="680.77" y1="258.24" x2="32.41" y2="258.24" style="fill:none; stroke:#2d2e2e; stroke-miterlimit:10; stroke-width:35.12px;"/><line x1="684.83" y1="197.26" x2="70.09" y2="197.26" style="fill:none; stroke:#303131; stroke-miterlimit:10; stroke-width:34.65px;"/><line x1="693.27" y1="136.74" x2="112.17" y2="136.74" style="fill:none; stroke:#333434; stroke-miterlimit:10; stroke-width:34.18px;"/><line x1="701.38" y1="76.05" x2="153.91" y2="76.05" style="fill:none; stroke:#363737; stroke-miterlimit:10; stroke-width:33.71px;"/><line x1="704.42" y1="14.54" x2="190.58" y2="14.54" style="fill:none; stroke:#393a3a; stroke-miterlimit:10; stroke-width:33.24px;"/></g><g><line x1="1078.96" y1="758.14" x2="127.92" y2="758.14" style="fill:none; stroke:#050505; stroke-miterlimit:10; stroke-width:39.36px;"/><line x1="1051.87" y1="818.23" x2="134.46" y2="818.23" style="fill:none; stroke:#0c0d0d; stroke-miterlimit:10; stroke-width:38.89px;"/><line x1="1008.87" y1="875.66" x2="125.09" y2="875.66" style="fill:none; stroke:#121313; stroke-miterlimit:10; stroke-width:38.42px;"/><line x1="954.76" y1="931.01" x2="104.61" y2="931.01" style="fill:none; stroke:#171818; stroke-miterlimit:10; stroke-width:37.95px;"/><line x1="894.36" y1="984.83" x2="77.84" y2="984.83" style="fill:none; stroke:#1b1d1d; stroke-miterlimit:10; stroke-width:37.48px;"/><line x1="832.49" y1="1037.69" x2="49.6" y2="1037.69" style="fill:none; stroke:#1f2121; stroke-miterlimit:10; stroke-width:37.01px;"/><line x1="773.95" y1="1090.15" x2="24.7" y2="1090.15" style="fill:none; stroke:#232424; stroke-miterlimit:10; stroke-width:36.54px;"/><line x1="723.57" y1="1142.77" x2="7.94" y2="1142.77" style="fill:none; stroke:#262828; stroke-miterlimit:10; stroke-width:36.06px;"/><line x1="686.15" y1="1196.12" x2="4.16" y2="1196.12" style="fill:none; stroke:#292b2b; stroke-miterlimit:10; stroke-width:35.59px;"/><line x1="680.77" y1="1258.04" x2="32.41" y2="1258.04" style="fill:none; stroke:#2d2e2e; stroke-miterlimit:10; stroke-width:35.12px;"/><line x1="684.83" y1="1319.02" x2="70.09" y2="1319.02" style="fill:none; stroke:#303131; stroke-miterlimit:10; stroke-width:34.65px;"/><line x1="693.27" y1="1379.54" x2="112.17" y2="1379.54" style="fill:none; stroke:#333434; stroke-miterlimit:10; stroke-width:34.18px;"/><line x1="701.38" y1="1440.23" x2="153.91" y2="1440.23" style="fill:none; stroke:#363737; stroke-miterlimit:10; stroke-width:33.71px;"/><line x1="704.42" y1="1501.74" x2="190.58" y2="1501.74" style="fill:none; stroke:#393a3a; stroke-miterlimit:10; stroke-width:33.24px;"/><line x1="697.65" y1="1564.69" x2="217.44" y2="1564.69" style="fill:none; stroke:#3c3d3d; stroke-miterlimit:10; stroke-width:32.77px;"/></g><g><line x1="-163.87" y1="2371.23" x2="787.17" y2="2371.23" style="fill:none; stroke:#050505; stroke-miterlimit:10; stroke-width:39.36px;"/><line x1="-136.78" y1="2311.15" x2="780.63" y2="2311.15" style="fill:none; stroke:#0c0d0d; stroke-miterlimit:10; stroke-width:38.89px;"/><line x1="-93.77" y1="2253.71" x2="790" y2="2253.71" style="fill:none; stroke:#121313; stroke-miterlimit:10; stroke-width:38.42px;"/><line x1="-39.67" y1="2198.36" x2="810.48" y2="2198.36" style="fill:none; stroke:#171818; stroke-miterlimit:10; stroke-width:37.95px;"/><line x1="20.73" y1="2144.54" x2="837.25" y2="2144.54" style="fill:none; stroke:#1b1d1d; stroke-miterlimit:10; stroke-width:37.48px;"/><line x1="82.6" y1="2091.68" x2="865.49" y2="2091.68" style="fill:none; stroke:#1f2121; stroke-miterlimit:10; stroke-width:37.01px;"/><line x1="141.14" y1="2039.22" x2="890.4" y2="2039.22" style="fill:none; stroke:#232424; stroke-miterlimit:10; stroke-width:36.54px;"/><line x1="191.52" y1="1986.6" x2="907.15" y2="1986.6" style="fill:none; stroke:#262828; stroke-miterlimit:10; stroke-width:36.06px;"/><line x1="228.94" y1="1933.26" x2="910.94" y2="1933.26" style="fill:none; stroke:#292b2b; stroke-miterlimit:10; stroke-width:35.59px;"/><line x1="234.32" y1="1871.34" x2="882.68" y2="1871.34" style="fill:none; stroke:#2d2e2e; stroke-miterlimit:10; stroke-width:35.12px;"/><line x1="230.27" y1="1810.36" x2="845" y2="1810.36" style="fill:none; stroke:#303131; stroke-miterlimit:10; stroke-width:34.65px;"/><line x1="221.82" y1="1749.83" x2="802.92" y2="1749.83" style="fill:none; stroke:#333434; stroke-miterlimit:10; stroke-width:34.18px;"/><line x1="213.71" y1="1689.14" x2="761.18" y2="1689.14" style="fill:none; stroke:#363737; stroke-miterlimit:10; stroke-width:33.71px;"/><line x1="210.67" y1="1627.63" x2="724.52" y2="1627.63" style="fill:none; stroke:#393a3a; stroke-miterlimit:10; stroke-width:33.24px;"/><line x1="217.44" y1="1564.69" x2="697.65" y2="1564.69" style="fill:none; stroke:#3c3d3d; stroke-miterlimit:10; stroke-width:32.77px;"/></g><g><line x1="787.17" y1="2371.23" x2="-163.87" y2="2371.23" style="fill:none; stroke:#050505; stroke-miterlimit:10; stroke-width:39.36px;"/><line x1="760.08" y1="2431.32" x2="-157.33" y2="2431.32" style="fill:none; stroke:#0c0d0d; stroke-miterlimit:10; stroke-width:38.89px;"/><line x1="717.08" y1="2488.75" x2="-166.7" y2="2488.75" style="fill:none; stroke:#121313; stroke-miterlimit:10; stroke-width:38.42px;"/><line x1="662.97" y1="2544.1" x2="-187.18" y2="2544.1" style="fill:none; stroke:#171818; stroke-miterlimit:10; stroke-width:37.95px;"/><line x1="602.57" y1="2597.92" x2="-213.94" y2="2597.92" style="fill:none; stroke:#1b1d1d; stroke-miterlimit:10; stroke-width:37.48px;"/><line x1="540.7" y1="2650.78" x2="-242.19" y2="2650.78" style="fill:none; stroke:#1f2121; stroke-miterlimit:10; stroke-width:37.01px;"/><line x1="482.17" y1="2703.24" x2="-267.09" y2="2703.24" style="fill:none; stroke:#232424; stroke-miterlimit:10; stroke-width:36.54px;"/><line x1="431.78" y1="2755.86" x2="-283.84" y2="2755.86" style="fill:none; stroke:#262828; stroke-miterlimit:10; stroke-width:36.06px;"/><line x1="394.36" y1="2809.21" x2="-287.63" y2="2809.21" style="fill:none; stroke:#292b2b; stroke-miterlimit:10; stroke-width:35.59px;"/><line x1="388.99" y1="2871.13" x2="-259.38" y2="2871.13" style="fill:none; stroke:#2d2e2e; stroke-miterlimit:10; stroke-width:35.12px;"/><line x1="393.04" y1="2932.11" x2="-221.7" y2="2932.11" style="fill:none; stroke:#303131; stroke-miterlimit:10; stroke-width:34.65px;"/><line x1="401.49" y1="2992.63" x2="-179.62" y2="2992.63" style="fill:none; stroke:#333434; stroke-miterlimit:10; stroke-width:34.18px;"/><line x1="409.59" y1="3053.33" x2="-137.88" y2="3053.33" style="fill:none; stroke:#363737; stroke-miterlimit:10; stroke-width:33.71px;"/></g></g></g><g><rect y="-755.92" width="792" height="612" style="fill:#231f20;"/><g style="clip-path:url(#clippath-1);"><line x1="1078.96" y1="2.22" x2="127.92" y2="2.22" style="fill:none; stroke:#464547; stroke-miterlimit:10; stroke-width:39.36px;"/></g></g></svg>