<?xml version="1.0" encoding="UTF-8"?><svg id="Layer_2" xmlns="http://www.w3.org/2000/svg" viewBox="0 0 225.43 132.88"><g id="dustyLettering"><g><path d="M31.61,113.28c-7.72,0-19.88-11.01-29.18-11.87,.86-1,1-2.86,1-5.15V24.75c0-2.86-1.14-6.87-3.43-9.15C8.73,12.59,16.74,6.72,24.89,1.43c1.43-1,4-1.43,6.29-1.43,14.88,0,25.03,15.16,25.03,28.04,0,1,0,2.15-.14,3.29-1.86,15.45-2.86,32.76-2.86,43.91,0,2.29,0,4.29,.14,6.01,.29,4.86,.72,15.59,3.72,19.6-7.72,5.72-15.3,12.44-25.46,12.44ZM27.46,11.59c-1.57,0-5.58,1.86-6.44,3.29V91.54c1.57,1.57,8.44,3.86,12.87,3.86,1.57,0,2.72-.29,3.43-.86-.86-3.86-1.72-10.87-1.72-16.59,0-16.74,2.72-33.61,2.72-50.49,0-6.72-2.72-15.88-10.87-15.88Z" style="fill:#fff;"/><path d="M93.4,102.27c-1.72-.86-4.72-3.86-5.29-8.01-3.86,2.72-12.73,7.87-15.73,7.87-5.01,0-8.87-3.29-8.87-8.44V52.21c0-3-2.72-5.29-3.86-6.29,4-2.72,8.15-6.01,12.44-8.3,2.86,1.72,5.44,5.01,5.44,8.15v39.48c0,2.43,1.43,3.15,3,3.15,3.43,0,6.87-2.86,7.87-4.43V51.21c0-3.29-.71-4.86-2.57-6.44l12.3-7.44c2.72,1.43,4.43,4.72,4.43,8.44v40.76c0,2.29,.14,6.72,3.43,8.87l-12.59,6.87Z" style="fill:#fff;"/><path d="M147.04,86.39c0,4.43-2.43,9.44-6.01,10.44-4.15,1.14-11.73,4.86-17.74,6.29-9.3,0-13.87-8.87-14.45-17.02l12.3-6.72c0,4.43,.57,14.59,6.44,14.59,3,0,4.29-2.29,4.29-4.58,0-3.43-2.29-7.72-5.01-9.87-8.58-6.44-14.3-6.29-18.45-18.31-.57-1.43-.71-3.29-.71-5.15,0-12.02,9.87-12.87,23.31-18.88,7.29,0,12.59,8.72,12.59,15.59l-10.58,6.44c-.14-4-1.72-11.59-6.15-11.59-3.72,0-5.15,3.15-5.15,5.58,0,3.15,1.86,6.58,4.29,8.3,8.3,5.58,18.88,16.02,20.6,21.6,.29,1,.43,2.15,.43,3.29Z" style="fill:#fff;"/><path d="M171.5,49.06v36.33c0,4.58,2,7.44,4.86,8.58l-12.3,8.15c-4.72-.57-9.01-7.87-9.01-13.3V48.49c-.86-.43-2.43-.72-4-.72-2.15,0-3.86,1-4.29,1-.86,0-1.43-2.43-1.43-3.43,0-6.58,5.15-10.73,9.73-11.44,0-1.72-.14-4-.14-6.29,0-4.43,.14-9.01,.14-9.01,0-2.72-2-4.43-3.58-6.15,5.01-2.72,9.73-5.15,14.59-8.01,7.44,5.15,5.15,16.88,5.44,29.47,.57,.29,1.29,.43,2,.43,2.15,0,4.58-1,5.72-1s1.57,1.72,1.57,3c0,1-.29,2.15-.57,3.29-1.72,5.58-3.15,6.87-8.73,9.44Z" style="fill:#fff;"/><path d="M225.43,104.13c0,18.59-22.6,28.75-39.76,28.75-6.29,0-11.73-3.43-11.73-9.15s10.87-9.15,15.73-9.15c3.29,0,5.72,.72,6.29,2-3.86,0-8.3,2-8.3,5.15s3.72,3.58,6.72,3.58c14.59-.86,15.73-14.02,15.73-24.75v-5.86c-5.01,3-11.3,7.01-17.17,7.01-5.15,0-9.73-4.15-9.73-9.44V52.64c0-4.29-1-4.72-2.86-6.01l12.3-7.29c2,.43,5.29,4.15,5.29,8.01v37.48c0,3.58,1.72,4.43,3.29,4.43,2.43,0,7.01-2.15,8.87-4.43,0,.14,0-33.33,0-33.33,0-3.43-1.43-5.72-3-6.58l12.01-7.01c1.86,1,6.29,3,6.29,11.3v54.93Z" style="fill:#fff;"/></g></g></svg>