<?xml version="1.0" encoding="UTF-8"?><svg id="Layer_2" xmlns="http://www.w3.org/2000/svg" viewBox="0 0 458.58 101.7"><g id="dustyLettering"><g><path d="M0,0H16.88c11.87,0,59.22,0,59.22,49.78s-43.91,50.35-53.35,50.35H0V0Z" style="fill:#fff;"/><path d="M84.96,52.49V0h36.33V65.22h10.73V0h36.33V52.49c0,17.02,0,49.2-41.62,49.2s-41.77-32.18-41.77-49.2Z" style="fill:#fff;"/><path d="M178.22,64.94c18.88,0,25.46-4.86,36.04-31.47C223.42,10.44,235.87,0,259.47,0h4.86V35.04h-.14c-11.16,0-15.16,10.16-21.03,26.32-9.73,26.75-27.61,38.76-55.64,38.76h-9.3v-35.19Z" style="fill:#fff;"/><path d="M271.05,0h87.68V35.19h-24.75V100.12h-35.76V35.19h-27.18V0Z" style="fill:#fff;"/><path d="M394.07,61.5L362.74,0h95.83l-28.75,56.5v43.63h-35.76V61.5Z" style="fill:#fff;"/></g></g></svg>