<?xml version="1.0" encoding="UTF-8"?><svg id="Layer_2" xmlns="http://www.w3.org/2000/svg" viewBox="0 0 350.01 117.15"><g id="dustyLettering"><g><path d="M38.05,92.12h-7.15c-15.88,0-23.46-6.44-23.46-23.74V12.44H0C0,4.29,0,0,4.72,0H39.77c24.89,0,44.77,14.02,44.77,43.05s-21.17,49.06-46.49,49.06ZM20.31,12.44v54.5c0,8.3,3.29,12.73,11.87,12.73h5.44c17.74,0,33.18-12.59,33.18-36.62,0-22.17-15.02-30.61-33.18-30.61H20.31Z" style="fill:#fff;"/><path d="M128.88,93.55c-16.02,0-28.89-8.73-28.89-29.89V29.61c0-6.87,1.57-6.87,12.16-6.87V61.36c0,13.59,5.29,20.31,16.73,20.31s17.74-6.72,17.74-20.31V23.32h12.02V63.65c0,21.17-13.59,29.89-29.75,29.89Z" style="fill:#fff;"/><path d="M191.96,93.55c-8.87,0-17.02-3-17.02-10.58v-4.86c5.15,2.58,10.87,4,16.45,4,7.15,0,13.02-3,13.02-8.01,0-13.59-34.04-5.58-34.04-29.75,0-13.02,10.44-22.46,26.18-22.46,13.16,0,21.88,7.15,21.88,15.16,0,5.58-3,7.87-6.58,7.87h-3.29v-2.43c0-5.15-4.44-9.58-12.45-9.58s-13.3,4.43-13.3,9.3c0,16.45,34.04,7.29,34.04,30.18,0,14.16-11.87,21.17-24.89,21.17Z" style="fill:#fff;"/><path d="M248.46,34.33v28.32c0,13.02,3.43,19.45,14.16,19.45,4.86,0,9.44-1.14,13.16-3.15v4.43c0,8.01-11.02,10.16-17.59,10.16-12.45,0-21.74-5.58-21.74-27.89v-31.9l-10.16-3.86c.14-2.15,1-5.01,2.43-6.58h7.72V14.3c0-6.87,1.43-6.87,12.02-6.87v15.88h23.46c4.58,0,4.58,3.29,4.58,11.01h-28.04Z" style="fill:#fff;"/><path d="M350.01,25.03l-24.6,66.23c-2.29,18.74-10.87,25.89-21.88,25.89-6.01,0-11.01-2.15-11.01-8.01v-4.43c2.43,.57,4.58,.86,6.15,.86,7.29,0,12.45-4,14.02-12.87-12.73-23.32-23.03-47.06-30.75-69.37h14.59c5.58,18.02,14.16,37.62,22.17,53.92l18.02-53.92h13.3v1.72Z" style="fill:#fff;"/></g></g></svg>