<?xml version="1.0" encoding="UTF-8"?><svg id="Layer_2" xmlns="http://www.w3.org/2000/svg" viewBox="0 0 350.44 119.58"><g id="dustyLettering"><g><path d="M47.92,83.82v11.87H0V0H47.92V11.87h11.87V83.82h-11.87Zm-.29-71.81H12.16V83.68H47.63V12.01Z" style="fill:#fff;"/><path d="M93.55,95.69v-11.87h-11.87V23.89h12.16v59.79h35.47V23.89h12.16V95.69h-47.92Z" style="fill:#fff;"/><path d="M199.25,83.82v11.87h-24.03v-11.87h-11.87v-12.01h12.16v11.87h23.6v-11.59h-12.01v-11.87h-11.87v-12.3h-11.87v-12.16h11.87v-11.87h24.03v11.87h11.87v12.16h-12.02v-11.87h-23.6v11.73h11.87v12.16h11.87v11.87h11.87v12.01h-11.87Z" style="fill:#fff;"/><path d="M257.04,36.05v59.65h-12.16V36.05h-11.87v-12.16h11.87V0h12.16V23.89h11.87v12.16h-11.87Z" style="fill:#fff;"/><path d="M338.57,47.92v23.89h-11.87v23.89h-11.87v23.89h-12.16v-24.17h11.87v-23.6h-11.87v-23.89h-11.87V23.89h12.16v23.89h11.87v23.75h11.73v-23.75h11.73l.14-23.89h12.02v24.03h-11.87Z" style="fill:#fff;"/></g></g></svg>