<?xml version="1.0" encoding="UTF-8"?><svg id="Layer_2" xmlns="http://www.w3.org/2000/svg" viewBox="0 0 309.88 141.88"><g id="dustyLettering"><g><path d="M74.12,117.76c-8.84,15.42-21.9,23.75-37.78,24.1-.4,0-.8,.01-1.19,.01-21.36,0-31.56-12.94-33.98-25.23-2.8-14.21,3.4-28.65,14.17-33.39V26.56c0-3.52,2.85-6.37,6.37-6.37s6.37,2.85,6.37,6.37v54.14c9.61,.27,16.57,5.95,19.65,12.75,1.38,3.06,.32,6.78-2.62,8.4-3.34,1.84-7.46,.38-8.94-3.04-2.24-5.17-8.29-6.75-15.4-4.01-5.31,2.04-8.69,11.28-7.09,19.4,1.13,5.74,5.54,15.29,22.38,14.93,11.33-.25,20.41-6.2,27-17.7,6.14-10.72,9.47-25.78,9.13-41.32-.34-15.54-4.33-30.44-10.93-40.88-7.09-11.19-16.43-16.75-27.75-16.49-11.78,.27-20.04,7.43-23.02,9.88-2.01,1.64-4.79,1.96-7.06,.69l-.2-.11c-3.79-2.12-4.36-7.4-1.03-10.19C7.03,8.96,17.42-.01,33.22,0c15.89,.01,29.29,7.4,38.8,22.42,7.93,12.52,12.51,29.36,12.91,47.41,.4,18.05-3.44,35.08-10.81,47.93Z" style="fill:#fff;"/><path d="M139.19,28.59V99.22c0,12.5-10.17,22.68-22.68,22.68s-22.68-10.17-22.68-22.68V28.59c0-3.52,2.85-6.37,6.37-6.37s6.37,2.85,6.37,6.37V99.22c0,5.48,4.46,9.94,9.94,9.94s9.94-4.46,9.94-9.94V28.59c0-3.52,2.85-6.37,6.37-6.37s6.37,2.85,6.37,6.37Z" style="fill:#fff;"/><path d="M184.36,47.96v-3.03c0-5.48-4.45-9.93-9.93-9.93s-9.93,4.46-9.93,9.93c0,5.96,8.4,16.79,14.36,22.57,3.05,2.95,18.24,18.36,18.24,31.72,0,12.5-10.17,22.67-22.67,22.67s-22.67-10.17-22.67-22.67v-3.03c0-3.52,2.85-6.37,6.37-6.37s6.37,2.85,6.37,6.37v3.03c0,5.48,4.45,9.93,9.93,9.93s9.93-4.45,9.93-9.93c0-5.93-8.4-16.78-14.37-22.58-3.04-2.95-18.23-18.35-18.23-31.72,0-12.5,10.17-22.67,22.67-22.67s22.67,10.17,22.67,22.67v3.03c0,3.52-2.85,6.37-6.37,6.37s-6.37-2.85-6.37-6.37Z" style="fill:#fff;"/><path d="M254.59,28.64c0,3.52-2.85,6.37-6.37,6.37h-11.49V115.54c0,3.52-2.85,6.37-6.37,6.37s-6.37-2.85-6.37-6.37V35.01h-11.49c-3.52,0-6.37-2.85-6.37-6.37s2.85-6.37,6.37-6.37h35.73c3.52,0,6.37,2.85,6.37,6.37Z" style="fill:#fff;"/><path d="M309.42,30.99l-19.95,50.05v34.49c0,3.52-2.85,6.37-6.37,6.37s-6.37-2.85-6.37-6.37v-34.49l-19.95-50.05c-1.3-3.27,.29-6.98,3.56-8.28,3.27-1.3,6.97,.29,8.28,3.56l14.49,36.33,14.48-36.33c1.3-3.27,5.01-4.86,8.28-3.56,3.27,1.3,4.86,5.01,3.56,8.28Z" style="fill:#fff;"/></g></g></svg>